<?xml version="1.0" standalone="no"?>
<!DOCTYPE svg PUBLIC "-//W3C//DTD SVG 20010904//EN"
 "http://www.w3.org/TR/2001/REC-SVG-20010904/DTD/svg10.dtd">
<svg version="1.0" xmlns="http://www.w3.org/2000/svg"
 width="3122.000000pt" height="757.000000pt" viewBox="0 0 3122.000000 757.000000"
 preserveAspectRatio="xMidYMid meet">
<metadata>
Created by potrace 1.16, written by Peter Selinger 2001-2019
</metadata>
<g transform="translate(0.000000,757.000000) scale(0.100000,-0.100000)"
fill="#1f2937" stroke="none">
<path d="M5850 7545 c-47 -13 -106 -32 -131 -43 -58 -25 -408 -260 -515 -346
l-81 -65 -59 15 c-32 8 -205 87 -384 174 -295 145 -338 163 -460 195 -173 45
-274 47 -423 9 -132 -33 -216 -87 -289 -188 -45 -62 -54 -82 -84 -203 -33
-131 -34 -140 -34 -338 0 -166 4 -224 21 -312 30 -154 25 -176 -59 -271 -316
-360 -490 -726 -572 -1206 -94 -554 9 -1117 278 -1520 216 -321 522 -585 881
-758 193 -93 516 -185 771 -220 146 -20 528 -17 670 5 410 64 721 185 1067
416 100 66 203 139 228 161 26 23 49 39 52 37 2 -3 8 -175 13 -383 13 -525 34
-832 86 -1254 45 -367 93 -508 212 -630 77 -77 136 -110 241 -134 97 -21 146
-20 244 5 167 42 254 130 297 299 27 105 27 112 -39 550 -56 379 -95 679 -89
686 3 2 63 -7 134 -20 304 -58 632 -92 997 -106 274 -10 647 1 809 24 121 17
290 58 346 83 103 48 201 134 242 214 26 51 50 149 50 205 -1 123 -63 279
-137 344 -129 114 -307 145 -555 96 -208 -42 -314 -50 -643 -49 -321 0 -497
10 -795 43 -152 17 -480 66 -486 73 -5 5 16 631 26 762 l9 140 38 33 c49 42
129 80 310 148 131 49 164 57 312 77 154 20 203 22 696 21 516 -2 907 -14
1090 -35 50 -6 160 -24 245 -41 191 -38 291 -41 410 -9 176 47 277 139 320
292 54 196 -7 384 -163 503 -71 53 -132 79 -262 109 -248 58 -530 80 -1225 97
-234 6 -513 15 -620 20 -214 12 -1644 -3 -2055 -20 -126 -6 -387 -15 -580 -20
-560 -16 -781 -34 -1055 -85 -313 -59 -441 -101 -542 -175 -93 -68 -150 -148
-177 -248 -27 -99 -27 -175 0 -273 41 -154 143 -247 310 -285 92 -21 151 -15
291 30 171 55 356 80 586 78 228 -2 318 -19 477 -89 123 -54 239 -130 243
-159 4 -28 -237 -259 -393 -377 -175 -132 -389 -232 -558 -261 -254 -44 -595
-20 -832 58 -107 36 -301 131 -400 197 -96 64 -251 211 -311 295 -54 76 -128
229 -149 309 -59 228 -32 629 59 865 97 251 233 448 431 623 221 197 487 327
771 379 100 18 158 21 364 21 429 1 712 -51 985 -182 129 -61 219 -121 325
-216 191 -172 310 -217 470 -181 193 44 286 155 319 383 8 50 6 81 -9 152 -22
102 -48 160 -114 248 -113 151 -365 332 -615 444 l-106 47 -11 149 c-10 138
-36 271 -66 340 -29 66 -100 148 -179 205 -91 67 -310 87 -469 43z"/>
<path d="M1650 6368 c-296 -25 -498 -145 -544 -324 -39 -150 1 -278 117 -380
92 -81 249 -139 432 -160 240 -28 377 -25 511 11 169 46 255 103 333 219 100
147 93 255 -26 419 -34 46 -130 121 -186 145 -57 24 -214 64 -272 69 -101 8
-276 8 -365 1z"/>
<path d="M1240 5217 c-3 -3 -111 -8 -240 -12 -305 -8 -333 -10 -514 -36 -68
-9 -193 -48 -251 -77 -110 -55 -183 -140 -216 -254 l-23 -77 22 -82 c27 -101
71 -163 156 -223 151 -106 205 -119 556 -131 182 -6 503 -6 637 0 240 12 461
105 555 235 29 40 78 175 78 214 0 15 -12 64 -27 109 -25 74 -35 89 -98 153
-47 47 -90 79 -130 98 -33 15 -68 32 -78 37 -41 22 -198 47 -307 48 -64 1
-118 0 -120 -2z"/>
<path d="M27758 5143 c-32 -8 -96 -106 -123 -188 -35 -108 -65 -232 -65 -274
0 -23 -8 -44 -24 -60 -13 -15 -51 -80 -84 -146 -82 -163 -107 -276 -100 -454
4 -99 11 -142 30 -201 14 -41 29 -91 33 -110 4 -19 29 -80 55 -135 37 -78 62
-116 116 -172 140 -147 237 -199 417 -224 70 -10 91 -9 147 5 102 26 178 68
256 143 58 54 81 87 118 161 67 135 80 201 79 417 -1 159 -3 191 -26 276 -65
247 -257 504 -414 553 -89 28 -152 99 -238 268 -47 93 -76 139 -90 142 -22 6
-62 6 -87 -1z"/>
<path d="M29670 5143 c-21 -8 -27 -20 -44 -78 -28 -94 -186 -305 -229 -305 -5
0 -38 -14 -72 -31 -161 -79 -324 -307 -387 -542 -29 -104 -31 -125 -32 -282 0
-144 3 -185 23 -270 54 -228 166 -377 338 -449 47 -20 86 -27 170 -32 100 -6
115 -4 193 21 136 44 138 45 279 186 54 54 109 120 125 150 138 256 166 347
166 539 0 199 -31 361 -88 460 -32 56 -94 140 -103 140 -3 0 -18 11 -33 25
-19 17 -26 34 -26 59 0 20 -18 92 -41 161 -43 134 -106 237 -151 249 -28 7
-67 7 -88 -1z"/>
<path d="M16345 4710 c-207 -30 -329 -138 -374 -329 -12 -49 -21 -111 -21
-138 0 -28 83 -736 185 -1574 132 -1091 191 -1549 208 -1610 52 -192 163 -309
337 -354 84 -22 170 -22 262 0 103 25 153 51 213 110 63 61 97 125 119 224 21
95 20 139 -4 291 -43 271 -122 843 -200 1449 l-40 313 98 106 c121 131 300
296 412 379 118 88 224 138 363 173 132 34 189 59 265 120 141 111 195 304
139 496 -45 154 -141 243 -307 284 -112 28 -206 24 -352 -14 -199 -52 -369
-142 -719 -378 l-26 -18 -27 103 c-40 153 -119 259 -241 319 -31 16 -143 44
-205 51 -19 3 -58 1 -85 -3z"/>
<path d="M19115 4710 c-207 -30 -329 -138 -374 -329 -12 -49 -21 -111 -21
-138 0 -28 83 -736 185 -1574 132 -1091 191 -1549 208 -1610 52 -192 163 -309
337 -354 84 -22 170 -22 262 0 103 25 153 51 213 110 63 61 97 125 119 224 21
95 20 139 -4 291 -43 271 -122 843 -200 1449 l-40 313 98 106 c121 131 300
296 412 379 118 88 224 138 363 173 132 34 189 59 265 120 141 111 195 304
139 496 -45 154 -141 243 -307 284 -112 28 -206 24 -352 -14 -199 -52 -369
-142 -719 -378 l-26 -18 -27 103 c-40 153 -119 259 -241 319 -31 16 -143 44
-205 51 -19 3 -58 1 -85 -3z"/>
<path d="M12018 4340 c-213 -53 -374 -200 -564 -515 -141 -237 -259 -591 -309
-930 -34 -231 -36 -577 -5 -770 19 -118 81 -345 121 -445 162 -394 532 -730
959 -869 222 -72 437 -109 685 -118 267 -9 492 21 764 103 272 83 552 244 793
456 63 55 68 57 72 36 25 -128 61 -262 80 -303 56 -117 187 -239 289 -271 92
-28 148 -29 247 -4 115 28 192 81 250 172 43 66 52 90 76 214 16 80 16 86 -10
265 -15 101 -31 267 -36 369 -19 375 -7 1416 20 1740 6 69 19 172 30 230 31
172 33 199 15 285 -41 201 -135 303 -322 351 -118 30 -146 30 -256 0 -110 -29
-184 -78 -249 -166 -57 -77 -85 -159 -122 -351 -175 -905 -414 -1497 -744
-1840 -112 -118 -193 -180 -311 -242 -178 -93 -324 -127 -546 -127 -311 0
-515 72 -685 241 -61 60 -86 94 -123 170 -69 141 -79 185 -84 404 -12 453 88
742 407 1180 101 138 108 151 126 220 19 69 17 113 -7 208 -23 95 -67 168
-131 219 -60 49 -95 65 -190 88 -101 24 -140 24 -240 0z"/>
<path d="M21580 4344 c-89 -19 -117 -31 -175 -74 -103 -76 -165 -216 -165
-375 0 -218 195 -778 424 -1220 312 -601 775 -1198 1143 -1475 62 -47 113 -88
113 -92 0 -10 -135 -174 -200 -243 -120 -128 -169 -217 -200 -362 -13 -66 -7
-121 26 -232 33 -112 142 -206 281 -240 98 -25 155 -26 236 -5 190 49 365 210
699 642 585 757 1072 1589 1513 2582 170 382 229 555 227 659 -2 78 -38 198
-77 257 -66 100 -150 151 -299 180 -74 15 -97 16 -145 6 -154 -32 -231 -78
-313 -186 -55 -73 -66 -96 -162 -342 -162 -417 -381 -858 -674 -1359 -115
-196 -336 -553 -356 -573 -9 -9 -30 4 -101 66 -418 365 -864 1084 -1214 1957
-39 97 -86 198 -103 224 -75 112 -155 171 -274 201 -91 23 -115 23 -204 4z"/>
<path d="M1145 3930 c-228 -33 -326 -63 -432 -131 -123 -81 -160 -132 -187
-264 -14 -63 -5 -116 29 -182 8 -15 15 -33 15 -39 0 -17 60 -77 117 -118 67
-48 155 -83 262 -105 121 -25 134 -26 346 -25 l190 1 102 36 c102 35 208 99
265 158 14 16 39 54 55 86 25 51 28 69 28 153 0 106 -17 154 -83 231 -42 48
-160 130 -222 152 -129 47 -343 68 -485 47z"/>
<path d="M26675 3892 c-66 -42 -96 -89 -128 -202 -9 -30 -25 -84 -36 -120 -11
-36 -23 -85 -26 -110 -4 -25 -18 -65 -30 -90 -63 -127 -92 -338 -66 -477 5
-26 14 -80 21 -120 13 -83 48 -160 123 -275 49 -75 121 -158 138 -158 3 0 16
-9 29 -20 47 -40 152 -91 218 -105 111 -24 246 -20 338 11 94 30 125 49 182
107 90 92 163 343 147 505 -21 211 -106 407 -237 548 -99 107 -143 144 -188
160 -185 67 -249 130 -294 286 -9 31 -21 60 -26 63 -5 3 -37 8 -72 11 -51 4
-69 2 -93 -14z"/>
<path d="M30712 3901 c-16 -4 -30 -22 -45 -56 -26 -62 -74 -140 -116 -188 -30
-33 -84 -64 -201 -114 -43 -19 -79 -51 -203 -186 -62 -66 -151 -233 -166 -312
-42 -209 -49 -401 -16 -465 8 -15 23 -56 35 -92 11 -36 32 -76 45 -88 14 -13
25 -29 25 -35 0 -7 24 -34 53 -62 43 -41 67 -54 141 -77 83 -27 96 -28 210
-23 209 9 350 70 485 207 84 86 129 150 188 270 61 123 72 183 70 391 l-2 176
-44 88 c-25 48 -50 92 -55 99 -6 6 -27 31 -46 56 -19 25 -40 51 -47 58 -7 7
-16 25 -19 40 -11 47 -54 183 -65 205 -17 32 -70 87 -101 103 -28 14 -85 17
-126 5z"/>
<path d="M28555 3096 c-61 -13 -121 -29 -134 -35 -54 -29 -182 -134 -196 -161
-8 -16 -23 -35 -32 -42 -20 -15 -76 -78 -113 -127 -14 -18 -45 -59 -70 -90
-25 -31 -61 -81 -79 -111 -39 -63 -91 -133 -205 -274 -92 -114 -109 -131 -191
-202 -183 -157 -290 -295 -403 -521 -65 -128 -99 -321 -89 -502 12 -211 67
-362 166 -452 31 -28 65 -59 76 -70 20 -19 104 -67 155 -90 68 -29 144 -42
290 -46 126 -4 179 -1 285 16 72 11 155 29 185 40 30 10 123 32 205 47 136 26
169 29 360 28 185 0 226 -3 346 -27 74 -14 151 -33 170 -40 18 -8 96 -27 173
-42 128 -25 152 -27 315 -22 168 4 238 15 311 46 51 23 135 71 155 90 11 11
45 42 75 70 68 61 112 145 146 279 23 89 25 110 21 257 -8 246 -34 334 -164
555 -93 156 -175 253 -328 384 -82 70 -99 88 -191 202 -126 155 -202 262 -284
399 -67 112 -189 243 -311 335 -98 74 -122 84 -257 110 -136 25 -247 24 -387
-4z"/>
</g>
</svg>
